<svg width="386" height="449" viewBox="0 0 386 449" fill="none" xmlns="http://www.w3.org/2000/svg">
<path d="M113.328 162.608C112.968 165.949 112.065 167.918 112.105 168.5C120 284.5 307.134 291 305.572 154.855C305.28 153.007 303.143 137.871 293.165 103.946C292.831 102.812 292.267 101.567 292.666 100.449C293.223 99.9376 294.234 98.4206 295.168 97.9518C298.154 96.4533 300.648 94.4551 303.143 92.9566C306.015 91.2313 313.214 88.4057 311.125 85.9632C310.411 85.1278 308.492 83.5234 307.134 82.966C304.989 82.0852 301.386 79.1481 298.414 77.9767C296.272 77.1326 292.211 76.1329 289.514 74.3266C288.509 73.6536 287.507 72.3682 286.768 70.3555C285.232 66.1684 284.316 63.4752 282.331 60.5629C279.595 56.5472 276.758 52.3498 274.688 49.6141C271.348 45.2019 270.299 43.5766 265.364 36.8259C259.062 28.205 254.453 21.728 252.832 19.7833C251.685 18.4065 249.904 17.2927 247.816 15.5928L247.782 15.5646C244.321 12.7466 241.265 10.2575 238.549 8.9911C236.17 7.88194 233.328 6.60744 227.974 5.56411C214.603 2.95867 209.078 1.57257 205.989 1.5213C200.243 1.42594 192.169 1.64643 189.309 2.27072C182.646 3.7253 179.553 4.99545 175.183 6.06052C171.925 6.85433 168.138 7.4781 163.593 9.78169C159.417 11.8983 154.994 14.9752 150.616 18.8817C147.748 21.4409 146.109 23.2242 139.298 31.7526C135.955 35.939 132.408 38.6868 128.103 48.5145C125.713 53.9713 124.434 60.4553 121.861 66.532C120.565 69.5922 118.799 71.8306 117.874 74.4171C116.573 78.0547 115.208 82.3042 113.73 86.7488C110.866 95.3652 109.499 98.2628 109.504 102.545C109.512 109.314 109.41 116.742 109.871 122.142C110.129 125.156 110.453 128.802 110.796 131.348C111.211 134.433 111.905 138.995 112.405 144.171C112.694 147.168 114.336 153.246 113.328 162.608Z" fill="white" stroke="black" stroke-width="3" stroke-linecap="round" stroke-linejoin="round"/>
<path d="M160.178 56.4835C160.786 56.1256 163.024 54.9494 164.965 54.056C166.741 53.2385 168.935 53.2223 171.083 52.5149C172.13 52.216 173.142 51.9224 174.282 51.6596C174.944 51.5595 175.774 51.5269 176.63 51.4934" stroke="black" stroke-width="3" stroke-linecap="round" stroke-linejoin="round"/>
<path d="M230.001 46.28C232.889 46.312 239.502 46.4701 241.723 46.9551C242.435 47.1367 243.333 47.3681 244.035 47.5353C244.738 47.7024 245.217 47.7982 246 47.8969" stroke="black" stroke-width="3" stroke-linecap="round" stroke-linejoin="round"/>
<path d="M185.813 82.1055C185.828 82.1203 185.835 82.2465 185.783 82.492C185.653 83.0974 184.997 83.4294 184.26 84.0548C183.721 84.512 181.934 85.2243 179.705 86.14C178.632 86.5807 177.855 86.7209 175.923 86.8143C174.505 86.8828 172.192 86.7254 170.721 86.6644C167.958 86.55 167.372 86.4493 166.48 86.2546C166.122 86.1766 165.881 85.846 165.664 85.5073C165.358 85.0302 165.515 84.2641 165.855 83.5683C166.266 82.7284 167.23 82.4826 167.885 82.1203C169.512 81.2219 171.429 80.2699 172.435 79.9706C172.938 79.821 173.859 79.7309 174.938 79.619C176.556 79.4512 179.266 79.4873 180.382 79.5664C182.413 79.9231 183.727 80.258 184.033 80.3481C184.179 80.3983 184.304 80.4575 184.659 80.6084" stroke="black" stroke-width="3" stroke-linecap="round" stroke-linejoin="round"/>
<path d="M171.602 81.9741C171.882 81.274 172.427 80.4739 172.54 80.4005C172.706 80.345 173.534 79.9171 173.712 79.8902C174.103 79.8422 174.512 79.7806 175.071 79.6875C176.823 79.5086 177.861 79.3785 178.578 79.6799C179.067 79.8854 179.519 80.1659 179.712 80.6223C179.81 80.854 179.919 81.3311 179.839 81.9069C179.753 82.5335 179.628 83.5062 179.182 84.2119C178.68 85.0054 178.471 85.6748 177.697 86.2739C177.192 86.6653 176.582 87.1013 175.918 86.9178C174.789 86.6059 174.288 86.4896 173.514 85.8333C172.852 85.272 172.029 84.6686 171.781 83.8707C171.573 83.1998 171.373 82.5445 171.602 81.9741Z" fill="#808080" stroke="black" stroke-width="2" stroke-linecap="round" stroke-linejoin="round"/>
<path d="M239.493 71.0229C239.444 71.0263 239.083 71.1292 238.267 71.4816C237.996 71.5986 237.865 71.6925 237.714 71.7833C237.438 71.9483 237.077 72.1182 236.423 72.466C235.942 72.7218 235.135 73.0932 234.59 73.3902C233.756 73.8446 233.412 74.2025 233.257 74.385C233.046 74.6343 232.844 75.002 232.75 75.2411C232.643 75.5143 232.606 75.7362 232.534 76.2527C232.516 76.3806 232.506 76.4669 232.501 76.5291C232.497 76.5913 232.498 76.6268 232.616 76.6853C232.956 76.8535 233.578 76.9764 234.252 77.0976C234.56 77.1529 234.799 77.18 235.042 77.2117C235.285 77.2434 235.525 77.2749 236.365 77.2898C237.204 77.3048 238.636 77.3021 240.082 77.1726C241.529 77.0431 242.947 76.7868 244.075 76.5213C245.203 76.2557 245.999 75.9885 246.644 75.7363C247.289 75.4842 247.76 75.2551 248.03 75.1278C248.515 74.8991 248.961 74.6063 249.2 74.3466C249.431 74.0953 249.456 73.6532 249.487 73.3249C249.504 73.1417 249.383 72.9311 249.111 72.6236C248.98 72.4752 248.757 72.3703 247.998 72.0254C247.373 71.7409 246.245 71.264 245.559 70.9845C244.873 70.7049 244.661 70.6448 244.449 70.5996C244.034 70.5114 243.668 70.4971 243.411 70.5004C243.251 70.5025 243.012 70.527 242.143 70.6301C241.456 70.7116 240.275 70.8992 239.58 71.0144C238.493 71.1946 238.335 71.3131 238.105 71.3989C237.762 71.5621 237.559 71.7157 237.426 71.8173C237.395 71.8419 237.367 71.8673 237.331 71.8934" stroke="black" stroke-width="3" stroke-linecap="round" stroke-linejoin="round"/>
<path d="M239.4 71.9264C239.564 71.7922 239.747 71.6802 239.822 71.6436C239.914 71.5899 240.245 71.5189 240.335 71.5189C240.425 71.5189 240.823 71.4762 241.148 71.519C241.343 71.5448 241.611 71.5756 241.839 71.6607L241.853 71.6659C242.115 71.7638 242.317 71.839 242.477 71.9264C242.719 72.0591 242.944 72.2021 243.142 72.3485C243.345 72.4996 243.619 72.6697 243.831 73.0917C243.97 73.3673 244.092 73.6677 244.039 74.5228C244.02 74.8291 243.976 75.136 243.893 75.455C243.813 75.7587 243.764 76.0234 243.698 76.2317C243.582 76.5987 243.398 77.1339 243.249 77.2474C243.124 77.3427 242.549 77.5817 242.1 77.6539C241.814 77.6999 241.409 77.7852 240.597 77.6379C240.19 77.5642 239.562 77.4524 239.127 77.3043C238.116 76.9603 237.874 76.8562 237.746 76.6508C237.65 76.4982 237.514 76.3412 237.505 75.8276C237.494 75.1675 237.499 74.6837 237.542 74.5288C237.587 74.3681 237.638 74.1168 237.812 73.772L237.816 73.7649C238.044 73.3148 238.264 72.8807 238.594 72.5927C239.016 72.2247 239.31 72.0001 239.4 71.9264Z" fill="#818183"/>
<path d="M239.846 71.6328C239.799 71.6489 239.587 71.7732 239.4 71.9264C239.31 72.0001 239.016 72.2247 238.594 72.5927C238.262 72.8823 238.042 73.3193 237.812 73.772C237.638 74.1168 237.587 74.3681 237.542 74.5288C237.499 74.6837 237.494 75.1675 237.505 75.8276C237.514 76.3412 237.65 76.4982 237.746 76.6508C237.874 76.8562 238.116 76.9603 239.127 77.3043C239.562 77.4524 240.19 77.5642 240.597 77.6379C241.409 77.7852 241.814 77.6999 242.1 77.6539C242.549 77.5817 243.124 77.3427 243.249 77.2474C243.398 77.1338 243.582 76.5987 243.698 76.2317C243.764 76.0234 243.813 75.7587 243.893 75.455C243.976 75.136 244.02 74.8291 244.039 74.5228C244.092 73.6677 243.97 73.3673 243.831 73.0917C243.619 72.6697 243.345 72.4996 243.142 72.3485C242.944 72.2021 242.719 72.0591 242.477 71.9264C242.314 71.8375 242.108 71.7611 241.839 71.6607C241.611 71.5756 241.343 71.5448 241.148 71.519C240.823 71.4762 240.425 71.5189 240.335 71.5189C240.245 71.5189 239.914 71.5899 239.822 71.6436" stroke="black" stroke-width="2" stroke-linecap="round" stroke-linejoin="round"/>
<path d="M233.035 126.016C233.232 125.397 233.251 125.251 233.256 125.153C233.228 124.992 233.139 124.621 233.023 124.295C232.847 123.879 232.64 123.291 232.291 122.983C231.96 122.69 231.483 122.32 231.03 122.158C230.602 122.005 229.433 121.538 227.982 121.507C227.168 121.49 226.635 121.507 226.471 121.529C226.17 121.569 225.178 121.587 224.711 121.989C224.408 122.248 224.12 122.508 223.841 122.731C223.408 123.077 223.105 123.596 222.867 123.493C222.765 123.449 222.627 123.27 222.227 123.076C220.887 122.426 219.887 122.246 219.338 122.411C218.677 122.611 218.144 122.734 217.679 122.962C216.762 123.411 215.857 123.879 215.433 124.289C214.965 124.742 214.625 125.055 214.454 125.381C214.256 125.759 213.919 127.043 213.243 128.11C212.795 128.816 212.434 129.336 212.51 129.499C212.571 129.628 212.948 129.805 213.457 130.158C213.772 130.376 214.281 130.684 214.783 130.946C215.103 131.113 215.699 131.418 216.17 131.592C216.461 131.7 216.77 131.833 217.087 131.942C217.473 132.076 217.976 132.185 219.644 132.493C220.315 132.617 221.183 132.786 221.815 132.867C222.446 132.948 222.829 132.947 223.079 132.938C223.772 132.912 225.039 132.775 225.915 132.495C226.34 132.359 227.173 132.045 227.719 131.689C228.159 131.403 228.713 131.047 229.416 130.681C230.179 130.285 230.732 129.921 231.001 129.568C231.197 129.312 231.371 129.088 231.547 128.84C231.795 128.489 232.181 127.997 232.506 127.28C232.685 126.883 232.852 126.593 233.035 126.016Z" fill="#D06262" stroke="black" stroke-width="2" stroke-linecap="round" stroke-linejoin="round"/>
<path d="M213.5 129.803C213.862 129.797 214.685 129.776 215.41 129.727C216.021 129.685 217.124 129.606 217.962 129.521C218.799 129.436 219.336 129.347 220.079 129.193C221.76 128.845 222.825 128.587 223.311 128.5C224.339 128.318 225.245 128.125 226.158 127.943C227.924 127.59 229.112 127.24 229.306 127.201C229.809 127.101 230.184 126.959 230.453 126.865C230.582 126.818 230.735 126.771 231.023 126.701C231.223 126.654 231.534 126.585 231.924 126.5" stroke="black" stroke-width="2" stroke-linecap="round" stroke-linejoin="round"/>
<path d="M310.119 86.5C309.902 86.5395 308.549 86.7399 307.329 86.8561C306.954 86.8918 306.585 86.9759 305.589 87.0353C303.425 87.1644 301.745 87.1756 301.184 87.2601C299.972 87.4425 298.77 87.6 295.924 87.922C295.251 87.9982 293.765 88.1874 291.371 88.5457C288.859 88.8909 288.434 88.9514 288.134 89.0612C287.987 89.1258 287.85 89.2086 287.5 89.3852" stroke="black" stroke-width="3" stroke-linecap="round" stroke-linejoin="round"/>
<path d="M302 143.5C302.106 143.703 302.859 144.944 302.889 146.724C302.909 147.924 302.75 149.005 302.703 150.429C302.649 152.053 302.592 154.613 302.609 156.342C302.626 158.133 301.913 159.857 300.9 162.476C300.561 163.352 300.195 163.76 299.866 164.151C299.393 164.713 297.369 166.55 293.322 170.316C290.954 172.52 288.002 175.37 286.396 176.942C284.1 179.187 282.825 180.827 282.103 181.888C281.513 182.755 280.766 183.741 280.181 184.803C279.65 185.767 278.302 187.613 276.347 190.68C275.396 192.171 274.191 194.43 272.553 197.033C271.215 199.161 270.38 201.089 269.53 202.374C268.51 203.917 265.305 207.811 263.593 209.828C262.965 210.569 262.345 211.173 261.595 211.93C260.156 213.38 257.615 215.408 255.218 217.351C252.988 219.158 250.465 221.147 249.509 221.949C248.871 222.485 248.162 223.188 247.381 223.994C246.369 225.04 245.566 225.489 244.729 225.778C243.867 226.076 242.691 225.277 241.55 224.694C241.017 224.422 239.298 222.624 236.194 219.602C233.095 216.585 230.888 214.42 229.761 213.325C228.334 211.94 227.311 211.165 226.206 210.386C224.994 209.532 223.893 208.416 222.775 207.249C221.852 206.285 221.347 205.379 220.607 204.592C219.871 203.81 219.368 203.04 218.085 201.278C217.783 200.864 217.553 200.678 217.509 200.437C217.465 200.196 217.595 199.919 217.728 199.703C218.665 198.182 222.133 196.966 224.682 195.697C226.313 194.885 227.625 193.516 228.859 192.752C231.968 190.827 234.679 189.961 236.651 189.096C238.39 188.333 241.578 186.809 243.334 185.96C245.754 184.79 247.257 183.695 248.406 182.85C250.109 181.597 252.097 180.069 254.347 178.721C256.264 177.572 259.732 175.435 263.149 173.258C266.567 171.081 269.822 168.917 272.092 167.27C277.234 163.542 278.109 162.488 279.422 161.323C279.967 160.839 280.865 160.199 283.34 158.116C285.222 156.532 288.341 153.839 290.15 152.335C292.833 150.105 293.61 149.65 296.055 147.971C297.453 147.011 298.275 146.56 299.043 145.921C299.911 145.188 300.468 144.689 300.888 144.346C301.137 144.15 301.459 143.91 301.99 143.5" stroke="black" stroke-width="3" stroke-linecap="round" stroke-linejoin="round"/>
<path d="M112.647 159.5C113.31 160.219 114.855 162.006 115.687 162.932C117.21 164.628 118.267 165.298 119.055 165.967C119.883 166.669 121.04 167.524 121.911 168.275C122.977 169.193 123.568 169.731 124.439 170.579C125.619 171.728 127.949 173.079 130.058 174.672C131.466 175.736 132.97 176.624 134.987 177.797C135.827 178.286 137.173 179.265 139.146 180.568C141.039 181.818 143.94 183.649 147.213 185.525C149.697 186.95 150.703 187.241 155.674 189.313C157.507 190.078 159.834 190.652 165.316 191.823C170.799 192.994 179.402 194.644 184.211 195.619C189.792 196.75 190.774 197.141 191.436 197.286C193.696 197.78 195.15 198.06 198.093 198.979C201.023 199.893 203.238 200.337 204.126 200.573C206.382 201.171 209.803 201.835 212.775 202.617C213.576 202.827 214.083 202.83 214.384 202.977C214.528 203.047 214.518 203.309 214.46 203.498C214.161 204.466 212.279 205.755 210.85 207.328C210.134 208.117 209.26 209.682 208.46 211.153C207.318 213.255 205.819 216.147 205.313 217.2C204.748 218.38 204.009 219.304 203.241 220.039C202.347 220.895 201.098 221.436 200.154 222.095C199.18 222.776 198.136 223.699 197.276 224.524C196.61 225.163 195.723 225.765 194.93 226.344C193.929 227.075 192.967 227.358 191.783 227.48C190.696 227.592 189.837 227.221 187.745 226.779C184.563 226.108 183.119 225.509 181.379 224.694C180.622 224.339 179.523 223.618 177.594 222.411C172.82 219.423 171.142 218.007 169.491 217.464C165.308 216.088 164.298 215.725 161.926 214.91C160.629 214.465 159.25 213.78 157.677 213.02C155.982 212.202 153.798 210.712 151.864 209.278C150.79 208.482 150.152 207.947 148.935 207.096C146.698 205.531 144.966 203.867 143.676 202.713C141.763 201 140.094 199.984 139.14 199.274C137.61 198.137 135.873 197.414 133.822 196.098C130.033 193.67 127.835 191.457 126.995 190.91C123.739 188.787 121.938 187.598 120.355 186.159C118.57 184.536 117.993 182.2 116.2 177.865C114.758 174.378 114.116 172.778 113.576 171.681C113.15 170.815 112.756 170.056 112.338 169.24C111.77 168.134 111.627 167.055 111.527 166.136C111.409 165.054 111.7 163.779 111.996 162.673C112.295 161.846 112.499 161.263 112.665 160.862C112.755 160.664 112.857 160.475 112.961 160.281" stroke="black" stroke-width="3" stroke-linecap="round" stroke-linejoin="round"/>
<path d="M311.498 156.179C310.516 155.453 309.285 154.716 308.135 154.077C308.098 154.179 308.059 154.278 308.017 154.377C307.824 154.834 307.571 155.253 307.281 155.678C306.034 157.403 305.027 159.31 303.703 161.105C302.321 162.979 298.788 165.688 293.968 171.525C292.082 173.809 288.811 177.11 284.708 181.943C280.932 186.391 277.965 189.584 274.042 194.247C271.109 197.734 266.554 203.513 262.974 207.546C257.179 214.072 254.329 217.047 252.367 218.188C246.544 221.575 243.726 223.051 241.327 222.566C239.092 222.115 235.867 220.707 233.206 217.626C229.713 213.581 224.743 207.726 222.985 206.36C220.632 204.534 217.777 201.851 215.6 202.774C214.638 203.182 213.001 204.247 211.715 206.198C210.177 208.531 208.206 213.382 203.38 218.028L203.275 218.13C199.534 221.732 196.297 224.848 192.66 224.831C188.302 224.811 185.113 225.012 178.681 222.627C173.96 220.875 165.21 217.791 160.239 215.555C151.915 211.81 150.121 210.893 147.751 209.357C141.614 205.376 138.097 202.364 130.23 195.621C126.872 192.742 125.187 190.86 123.67 189.497C121.863 187.874 118.825 184.586 116.825 182.874C114.825 181.161 111.825 174.374 108.325 168.374C107.815 167.498 109.166 170.25 109.325 170.874C110.107 173.929 111.328 177.622 113.572 186.086C114.913 191.142 117.19 199.988 118.79 206.506C120.39 213.024 121.086 217.146 121.863 219.508C123.464 224.376 124.83 227.637 126.127 231.265C128.559 238.07 131.484 246.19 131.96 248.912C132.886 254.204 133.421 258.667 133.986 264.418C135.068 275.419 135.912 283.656 136.036 285.708C136.131 287.299 136.387 288.47 136.377 291.653C136.354 299.118 136.377 307.177 135.073 311.925C134.115 315.413 132.987 318.247 131.437 320.213C129.504 322.665 126.028 325.855 122.893 327.721C117.327 331.034 112.648 335.25 109.668 334.922L109.519 334.906C106.682 334.595 103.747 334.273 99.2391 331.576C95.9048 329.582 93.4545 328.28 89.3108 324.525C85.9271 321.459 80.6809 317.055 75.3789 311.882C71.4189 308.018 69.373 306.136 68.2724 304.872C64.3585 300.379 62.1588 297.516 57.5497 291.497C55.4096 288.703 52.6128 284.383 51.2271 281.091C50.3346 278.971 49.1937 276.642 47.7197 273.04C45.6039 267.87 44.6173 265.42 43.9559 263.193C43.3011 260.988 43.0186 257.218 40.8958 256.292C40.0439 255.921 38.284 255.556 35.5979 255.435C31.7836 255.263 29.294 254.331 27.0793 254.626C26.4823 254.706 25.533 254.917 25.5138 255.43C25.4417 257.366 25.6555 259.391 26.0585 261.647C26.4738 263.972 26.9341 266.218 27.4711 269.963C27.8966 272.93 27.9215 274.46 27.4711 276.874C26.8358 280.279 27.4711 285.167 27.4711 288.374C27.4711 293.368 27.955 299.49 28.5224 302.874C29.0974 306.303 29.5256 310.255 30.1189 313.19C30.9348 317.227 33.8323 322.016 35.3252 325.374C38.6071 332.754 41.4768 335.792 45.3252 341.374C47.9311 345.153 51.1594 346.837 53.3601 348.046C55.615 349.284 58.0514 350.314 60.0164 351.26C61.9127 352.173 63.5727 353.536 65.9622 354.042C70.2169 354.945 73.0761 355.373 75.2512 355.591C77.5291 355.818 79.6404 355.617 83.5296 356.292C84.3856 356.441 84.9829 356.681 84.9961 357.774C85.0603 363.112 80.6228 379.008 87.5897 381.094C92.9784 382.707 97.3888 383.917 98.9492 384.624C101.266 385.674 105.506 386.706 107.324 388.87C108.969 390.829 111.367 392.271 113.652 393.608C116.56 395.308 124.37 398.315 135.425 399.352C140.31 399.81 148.52 400.505 153.01 400.899C157.5 401.294 158.247 401.384 165.542 401.571C172.837 401.758 186.285 401.821 194.733 402.397C206.574 403.204 210.712 403.796 215.118 403.618C232.268 402.929 234.978 402.874 238.16 402.557C244.746 401.899 251.58 401.095 255.178 400.711C261.621 400.022 271.605 398.602 275.928 396.592C278.661 395.32 281.218 393.97 285.273 393.316C294.671 391.8 298.187 391.594 300.961 390.741C303.926 389.829 307.715 387.831 310.698 386.35C312.899 385.257 315.764 384.154 318.94 383.074C322.58 381.837 326.124 381.281 329.933 379.072C333.282 377.129 336.89 373.878 341.182 371.708C343.753 370.409 346.417 368.883 347.473 370.413C348.089 371.306 348.702 372.84 349.413 374.855C350.393 377.633 351.173 380.228 351.755 383.358C352.209 385.796 352.561 388.519 352.794 390.82C353.026 393.112 350.195 398.289 354.057 399.603C356.066 400.286 358.873 400.995 362.388 401.199C367.002 401.466 370.432 402.655 371.353 400.804C371.773 399.959 371.87 398.928 372.156 397.905C372.796 395.61 374.278 389.818 375.77 383.8C377.08 378.517 377.876 375.324 378.914 372.081C379.892 369.027 382.736 362.309 383.553 353.769C384.09 348.15 383.848 344.601 382.95 341.2C381.716 336.53 380.375 332.194 378.221 324.325C376.533 318.154 373.668 307.828 372.069 300.996C369.733 291.024 368.696 286.867 368.265 285.093L368.237 284.977C367.918 283.67 367.389 281.496 367.39 277.014C367.392 269.704 367.353 264.839 365.976 259.825C364.748 255.349 362.614 247.148 361.14 242.693C359.385 237.389 357.875 233.135 355.148 228.207C353.694 225.58 351.424 221.188 348.088 213.866C342.129 200.79 339.336 196.116 338.287 194.117C336.81 191.305 334.286 186.669 331.502 182.571C329.594 179.762 327.583 177.65 325.696 174.681C323.183 170.728 321.629 168.222 320.04 166.025C317.838 162.983 315.265 158.965 311.498 156.179Z" fill="#CDFFFF"/>
<path d="M305.143 152.5C306.392 153.14 309.475 154.683 311.498 156.179C315.265 158.965 317.838 162.983 320.04 166.025C321.629 168.222 323.183 170.728 325.696 174.681C327.583 177.65 329.594 179.762 331.502 182.571C334.286 186.669 336.81 191.305 338.287 194.117C339.336 196.116 342.129 200.79 348.088 213.866C351.424 221.188 353.694 225.58 355.148 228.207C357.875 233.135 359.385 237.389 361.14 242.693C362.614 247.148 364.748 255.349 365.976 259.825C367.353 264.839 367.392 269.704 367.39 277.014C367.389 281.631 367.951 283.799 368.265 285.093C368.696 286.867 369.733 291.024 372.069 300.996C373.668 307.828 376.533 318.154 378.221 324.325C380.375 332.194 381.716 336.53 382.95 341.2C383.848 344.601 384.09 348.15 383.553 353.769C382.736 362.309 379.892 369.027 378.914 372.081C377.876 375.324 377.08 378.517 375.77 383.8C374.278 389.818 372.796 395.61 372.156 397.905C371.87 398.928 371.773 399.959 371.353 400.804C370.432 402.655 367.002 401.466 362.388 401.199C358.873 400.995 356.066 400.286 354.057 399.603C350.195 398.289 353.026 393.112 352.794 390.82C352.561 388.519 352.209 385.796 351.755 383.358C351.173 380.228 350.393 377.633 349.413 374.855C348.702 372.84 348.089 371.306 347.473 370.413C346.417 368.883 343.753 370.409 341.182 371.708C336.89 373.878 333.282 377.129 329.933 379.072C326.124 381.281 322.58 381.837 318.94 383.074C315.764 384.154 312.899 385.257 310.698 386.35C307.715 387.831 303.926 389.829 300.961 390.741C298.187 391.594 294.671 391.8 285.273 393.316C281.218 393.97 278.661 395.32 275.928 396.592C271.605 398.602 261.621 400.022 255.178 400.711C251.58 401.095 244.746 401.899 238.16 402.557C234.978 402.874 232.268 402.929 215.118 403.618C210.712 403.796 206.574 403.204 194.733 402.397C186.285 401.821 172.837 401.758 165.542 401.571C158.247 401.384 157.5 401.294 153.01 400.899C148.52 400.505 140.31 399.81 135.425 399.352C124.37 398.315 116.56 395.308 113.652 393.608C111.367 392.271 108.969 390.829 107.324 388.87C105.506 386.706 101.266 385.674 98.9492 384.624C97.3888 383.917 92.9784 382.707 87.5897 381.094C80.6228 379.008 85.0603 363.112 84.9961 357.774C84.9829 356.681 84.3856 356.441 83.5296 356.292C79.6404 355.617 77.5291 355.818 75.2512 355.591C73.0761 355.373 70.2169 354.945 65.9622 354.042C63.5727 353.536 61.9127 352.173 60.0164 351.26C58.0514 350.314 55.615 349.284 53.3601 348.046C51.1594 346.837 47.9311 345.153 45.3252 341.374C41.4768 335.792 38.6071 332.754 35.3252 325.374C33.8323 322.016 30.9348 317.227 30.1189 313.19C29.5256 310.255 29.0974 306.303 28.5224 302.874C27.955 299.49 27.4711 293.368 27.4711 288.374C27.4711 285.167 26.8358 280.279 27.4711 276.874C27.9215 274.46 27.8966 272.93 27.4711 269.963C26.9341 266.218 26.4738 263.972 26.0585 261.647C25.6555 259.391 25.4417 257.366 25.5138 255.43C25.533 254.917 26.4823 254.706 27.0793 254.626C29.294 254.331 31.7836 255.263 35.5979 255.435C38.284 255.556 40.0439 255.921 40.8958 256.292C43.0186 257.218 43.3011 260.988 43.9559 263.193C44.6173 265.42 45.6039 267.87 47.7197 273.04C49.1937 276.642 50.3346 278.971 51.2271 281.091C52.6128 284.383 55.4096 288.703 57.5497 291.497C62.1588 297.516 64.3585 300.379 68.2724 304.872C69.373 306.136 71.4189 308.018 75.3789 311.882C80.6809 317.055 85.9271 321.459 89.3108 324.525C93.4545 328.28 95.9048 329.582 99.2391 331.576C103.826 334.32 106.784 334.606 109.668 334.922C112.648 335.25 117.327 331.034 122.893 327.721C126.028 325.855 129.504 322.665 131.437 320.213C132.987 318.247 134.115 315.413 135.073 311.925C136.377 307.177 136.354 299.118 136.377 291.653C136.387 288.47 136.131 287.299 136.036 285.708C135.912 283.656 135.068 275.419 133.986 264.418C133.421 258.667 132.886 254.204 131.96 248.912C131.484 246.19 128.559 238.07 126.127 231.265C124.83 227.637 123.464 224.376 121.863 219.508C121.086 217.146 120.39 213.024 118.79 206.506C117.19 199.988 114.913 191.142 113.572 186.086C111.328 177.622 110.107 173.929 109.325 170.874C109.166 170.25 107.815 167.498 108.325 168.374C111.825 174.374 114.825 181.161 116.825 182.874C118.825 184.586 121.863 187.874 123.67 189.497C125.187 190.86 126.872 192.742 130.23 195.621C138.097 202.364 141.614 205.376 147.751 209.357C150.121 210.893 151.915 211.81 160.239 215.555C165.21 217.791 173.96 220.875 178.681 222.627C185.113 225.012 188.302 224.811 192.66 224.831C196.331 224.848 199.594 221.673 203.38 218.028C208.206 213.382 210.177 208.531 211.715 206.198C213.001 204.247 214.638 203.182 215.6 202.774C217.777 201.851 220.632 204.534 222.985 206.36C224.743 207.726 229.713 213.581 233.206 217.626C235.867 220.707 239.092 222.115 241.327 222.566C243.726 223.051 246.544 221.575 252.367 218.188C254.329 217.047 257.179 214.072 262.974 207.546C266.554 203.513 271.109 197.734 274.042 194.247C277.965 189.584 280.932 186.391 284.708 181.943C288.811 177.11 292.082 173.809 293.968 171.525C298.788 165.688 302.321 162.979 303.703 161.105C305.027 159.31 306.034 157.403 307.281 155.678C307.571 155.253 307.824 154.834 308.017 154.377C308.211 153.92 308.338 153.437 308.564 152.745" stroke="black" stroke-width="3" stroke-linecap="round" stroke-linejoin="round"/>
<path d="M216.547 203.744C216.673 204.353 216.569 206.374 216.09 209.473C215.815 211.249 215.564 213.748 215.182 217.742C214.834 221.386 215.286 222.685 215.663 224.059C215.83 224.438 216.08 224.854 216.302 225.224C216.524 225.594 216.711 225.906 217.281 226.605" stroke="black" stroke-width="3" stroke-linecap="round" stroke-linejoin="round"/>
<path d="M162.3 254.799C162.786 254.889 164.625 255.071 166.757 255.375C169.617 255.782 173.61 256.384 176.232 256.841C176.677 256.915 177.167 256.963 178.458 257.226C179.748 257.49 181.824 257.967 184.467 258.458" stroke="black" stroke-width="3" stroke-linecap="round" stroke-linejoin="round"/>
<path d="M171.024 302.117C171.497 302.168 178.429 302.333 182.982 302.242C186.764 302.186 188.62 302.032 189.661 301.894C190.147 301.847 190.547 301.847 191.084 301.783" stroke="black" stroke-width="3" stroke-linecap="round" stroke-linejoin="round"/>
<path d="M175.32 355.611C175.783 355.662 178.883 355.766 183.857 355.408C186.498 355.218 187.986 355.093 192.532 354.868C194.804 354.705 195.962 354.411 196.838 353.954C197.249 353.792 197.59 353.771 198.067 353.685" stroke="black" stroke-width="3" stroke-linecap="round" stroke-linejoin="round"/>
<path d="M171.479 385.19C172.489 385.443 175.683 386.082 183.684 387.408C186.583 387.888 188.378 388.785 189.756 389.482C191.298 390.098 192.887 390.685 193.805 390.946C194.423 391.113 195.352 391.353 196.497 391.599" stroke="black" stroke-width="3" stroke-linecap="round" stroke-linejoin="round"/>
<path d="M83.5 356C84.0662 355.98 88.9169 353.693 91.902 352.035C93.9952 350.873 95.6807 349.808 98.0524 347.82C99.4505 346.648 100.97 345.435 102.287 344.545C103.725 343.574 105.701 342.913 106.96 342.133C107.557 341.781 108.127 341.458 108.693 341.127C108.988 340.945 109.299 340.733 109.873 340.322" stroke="black" stroke-width="3" stroke-linecap="round" stroke-linejoin="round"/>
<path d="M220.663 255.482C220.507 256.159 219.995 258.849 219.705 261.325C219.335 264.484 220.125 267.662 221.437 274.673C222.03 277.845 223.8 282.216 225.391 287.006C226.36 290.614 226.852 293.326 227.034 295.075C227.06 295.547 227.06 296.046 226.996 297.316" stroke="black" stroke-width="3" stroke-linecap="round" stroke-linejoin="round"/>
<path d="M232.319 247.497C232.319 247.622 232.484 248.651 232.775 250.269C232.985 251.234 233.142 251.917 233.314 252.683C233.413 253.088 233.538 253.524 233.729 254.352" stroke="black" stroke-width="3" stroke-linecap="round" stroke-linejoin="round"/>
<path d="M237.979 289.686C238.021 289.727 238.244 290.238 238.666 291.331C239.124 292.639 239.629 294.17 240.056 295.577C240.222 296.179 240.285 296.554 240.412 297.443" stroke="black" stroke-width="3" stroke-linecap="round" stroke-linejoin="round"/>
<path d="M228.22 311.873C228.303 311.956 228.467 312.513 228.775 315.26C229.466 321.408 229.683 326.959 229.997 329.41C230.361 332.253 230.65 334.909 230.984 337.581C231.149 338.908 231.454 342.02 232.251 347.159C233.098 352.622 233.8 356.071 233.892 359.003C233.923 361.331 233.923 365.366 233.938 367.609C233.953 369.852 233.984 370.181 233.821 371.274" stroke="black" stroke-width="3" stroke-linecap="round" stroke-linejoin="round"/>
<path d="M242.376 331.939C242.46 331.981 243.029 333.689 243.878 336.646C244.3 338.714 244.404 340.04 244.425 340.967C244.446 341.391 244.487 341.724 244.592 342.758" stroke="black" stroke-width="3" stroke-linecap="round" stroke-linejoin="round"/>
<path d="M235.452 387.936C235.452 389.653 235.348 394.029 235.31 395.664C235.407 397.471 235.512 399.39 235.663 400.246C235.752 400.728 235.865 401.306 235.982 402.153" stroke="black" stroke-width="3" stroke-linecap="round" stroke-linejoin="round"/>
<path d="M246.315 375.432C246.335 375.986 246.419 380.516 246.289 384.26C246.199 384.787 246.051 385.119 245.901 385.489C245.75 385.859 245.601 386.257 245.447 386.919" stroke="black" stroke-width="3" stroke-linecap="round" stroke-linejoin="round"/>
<path d="M274.081 379.869C274.708 379.457 276.502 378.686 278.234 378.01C279.533 377.503 280.936 377.269 283.775 376.733C286.695 376.094 290.358 375.328 291.464 374.97C292.046 374.822 292.67 374.743 293.715 374.503" stroke="black" stroke-width="3" stroke-linecap="round" stroke-linejoin="round"/>
<path d="M274.048 337.392C274.962 337.267 278.077 336.756 286.662 335.628C288.721 335.365 289.342 335.215 289.949 334.98C290.265 334.852 290.598 334.703 290.94 334.551" stroke="black" stroke-width="3" stroke-linecap="round" stroke-linejoin="round"/>
<path d="M266.123 289.488C266.164 289.488 266.543 289.354 267.509 289.06C268.117 288.9 268.965 288.72 272.221 288.113C275.477 287.506 281.115 286.479 287.579 285.356" stroke="black" stroke-width="3" stroke-linecap="round" stroke-linejoin="round"/>
<path d="M261.596 248.029C262.029 247.913 265.549 246.929 270.712 244.892C273.831 243.651 275.921 242.769 277.235 242.152C278.142 241.74 279.536 241.128 281.664 240.176" stroke="black" stroke-width="3" stroke-linecap="round" stroke-linejoin="round"/>
<path d="M309.22 179.047C309.739 179.502 312.875 183.614 314.603 186.151C315.411 187.337 317.074 190.353 319.253 196.438C320.666 200.384 321.21 202.72 322.464 208.276C322.912 214.484 323.015 217.716 322.904 219.625C322.868 220.272 322.847 221.079 322.761 222.099" stroke="black" stroke-width="3" stroke-linecap="round" stroke-linejoin="round"/>
<path d="M327.394 231.61C329.546 231.041 334.981 228.784 336.853 226.487C337.356 225.739 337.704 225.134 338.07 224.519C338.27 224.219 338.498 223.944 338.734 223.596" stroke="black" stroke-width="3" stroke-linecap="round" stroke-linejoin="round"/>
<path d="M326.637 238C326.803 238.166 327.246 238.925 328.063 241.561C329.628 246.61 329.815 251.464 330.167 253.839C330.729 257.627 331.764 261.691 332.232 263.544C332.706 265.421 333.405 267.314 333.804 268.857C334.178 270.308 335.191 274.842 336.635 281.205C337.553 286.539 337.781 287.688 338.005 289.172C338.147 290.115 338.347 291.445 338.553 292.814" stroke="black" stroke-width="3" stroke-linecap="round" stroke-linejoin="round"/>
<path d="M344.193 288.784C345.524 289.019 352.885 289.595 356.598 289.406C356.981 289.294 357.301 289.136 357.601 288.981C357.902 288.825 358.172 288.677 358.45 288.524" stroke="black" stroke-width="3" stroke-linecap="round" stroke-linejoin="round"/>
<path d="M340.078 299.22C340.078 299.303 340.204 303.598 340.565 311.21C340.836 316.933 341.544 319.842 341.971 322.056C342.299 323.759 343.057 326.597 343.73 330.294C344.402 333.99 345.019 338.448 345.541 341.9C346.851 350.564 347.083 352.425 347.096 354.253C347.059 354.71 346.986 355.138 346.949 355.637C346.911 356.137 346.911 356.694 346.911 357.14" stroke="black" stroke-width="3" stroke-linecap="round" stroke-linejoin="round"/>
<path d="M355.285 344.34C355.648 344.809 356.988 345.674 359.508 346.102C360.792 346.158 361.812 346.097 362.587 345.967C362.976 345.899 363.354 345.825 364.059 345.493" stroke="black" stroke-width="3" stroke-linecap="round" stroke-linejoin="round"/>
<path d="M21.1711 196.308C21.8106 201.867 22.0338 204.056 22.1437 204.677C22.1913 205.266 22.566 205.825 22.627 206.16C22.9436 207.904 23.4252 209.228 23.987 210.762C24.7921 212.523 26.0889 214.97 30.9082 224.79C32.6813 228.403 33.9567 232.003 35.842 237.07C37.6363 241.892 39.0366 245.426 39.8206 247.265C41.8802 252.097 42.8725 254.1 45.1137 260.325C46.2 263.341 47.4919 267.972 50.8581 274.186C54.8144 281.489 57.3323 285.609 57.8014 286.404C58.4126 287.44 59.8439 289.581 62.9381 293.536C67.5707 299.456 71.3117 303.7 72.7439 305.356C74.7163 307.636 76.5856 309.757 77.6635 311.149C79.335 313.307 81.2034 316.276 84.0037 319.499C86.3866 322.241 87.5103 323.808 90.4758 325.415C92.7914 326.671 99.217 328.586 105.64 329.892C107.914 330.354 109.646 330.684 112.168 331.079C114.126 331.387 116.691 331.535 118.598 330.681C120.273 329.93 123.515 328.166 125.7 326.316C127.456 324.83 128.813 323.487 129.747 322.084C130.775 320.538 130.815 317.507 131.974 313.585C132.79 310.826 134.435 307.973 134.232 304.233C133.996 299.895 134.469 295.531 134.491 293.488C134.519 290.844 134.297 288.704 134.348 286.048C134.422 282.231 134.346 279.457 133.8 271.542C133.437 266.288 133.28 259.897 132.295 256.712C131.479 254.072 130.903 250.435 130.31 245.662C129.274 237.333 128.894 235.334 127.741 230.37C126.841 226.493 126.896 224.232 124.691 219.232C123.733 217.058 123.16 214.59 120.938 209.686C118.804 204.978 116.436 198.455 115.53 195.443C114.405 191.702 113.398 186.466 110.87 179.342C109.347 175.052 108.145 170.776 107.049 167.423C106.395 165.422 105.993 163.592 105.14 161.449C104.269 159.261 103.28 156.005 101.312 151.082C100.142 148.153 98.4963 144.462 96.6175 140.983C94.7388 137.504 92.7436 134.296 91.2296 132.21C88.9278 129.04 86.663 126.302 83.3101 121.934C78.553 115.736 75.1892 111.239 73.2126 108.54C69.8485 103.946 67.4102 100.508 66.8106 99.6935C65.6851 98.1643 60.3568 91.1819 56.8674 86.7889C55.7094 85.3311 51.3777 78.8669 45.2748 75.1187C43.2384 73.8679 41.4466 72.8452 39.1918 72.1629C36.8262 71.4471 31.3669 70.184 27.3435 70.5727C24.166 70.8797 20.2689 71.1573 18.85 71.7523C17.2986 72.4028 15.5817 73.3414 13.4459 75.1812C10.5999 77.6325 8.53897 78.8211 7.15535 80.843C5.5875 83.134 4.41 85.4111 3.5751 88.7828C3.16568 90.4362 2.357 95.4066 1.86832 101.823C1.64979 104.692 1.52004 105.839 1.50375 113.042C1.48934 119.415 1.5199 131.036 1.53719 137.61L1.53915 138.357C1.55595 144.762 1.51911 145.271 1.59707 145.732C1.90748 147.57 2.56079 150.427 6.01846 158.668C8.6998 165.058 13.8436 176.921 16.4347 183.159C19.7494 191.139 20.8686 193.678 21.1711 196.308Z" fill="#CB905A" stroke="black" stroke-width="3" stroke-linecap="round" stroke-linejoin="round"/>
<path d="M48.7091 110.707C48.5333 111.053 46.6112 113.362 43.7162 116.123C42.1393 117.627 41.0603 119.481 39.3013 121.612C36.2432 125.454 35.605 126.508 35.2077 127.492C34.937 128.14 34.5258 129.093 33.9834 130.482" stroke="black" stroke-width="3" stroke-linecap="round" stroke-linejoin="round"/>
<path d="M54.1522 114.204C54.056 114.76 52.3842 118.769 51.0605 121.694C50.2236 123.544 48.8497 126.284 47.6885 128.24C46.9003 129.567 46.2573 130.798 44.9427 132.409C44.0626 133.248 41.7236 135.476 38.8014 138.339C37.7435 139.389 37.5484 139.62 36.9326 140.207" stroke="black" stroke-width="3" stroke-linecap="round" stroke-linejoin="round"/>
<path d="M65.3747 159.231C65.1597 159.578 62.8611 161.706 60.6838 163.417C59.4136 164.415 58.7447 165.778 57.7816 167.318C56.8457 168.814 55.9993 170.598 55.3954 171.918C55.1766 172.655 54.9351 174.105 54.6659 175.812C54.5422 176.487 54.4445 176.776 54.1655 177.011" stroke="black" stroke-width="3" stroke-linecap="round" stroke-linejoin="round"/>
<path d="M57.6147 179.553C59.0135 178.733 62.7683 175.804 64.4311 173.937C66.032 172.139 66.5182 170.677 67.2769 168.864C68.0411 167.038 68.6655 165.759 69.6783 164.004C69.9085 163.603 70.0625 163.33 70.2278 163.06C70.3932 162.789 70.5652 162.529 70.8008 162.142" stroke="black" stroke-width="3" stroke-linecap="round" stroke-linejoin="round"/>
<path d="M67.4414 228.264C67.788 227.819 68.6074 225.736 69.4149 222.937C69.8704 221.358 70.4146 220.045 71.7473 218.056C72.592 216.795 76.204 213.536 78.7827 211.187C79.9173 210.154 81.1816 209.313 82.7398 208.01C83.1011 207.727 83.3397 207.561 83.609 207.423C83.8784 207.285 84.1711 207.18 84.7642 206.894" stroke="black" stroke-width="3" stroke-linecap="round" stroke-linejoin="round"/>
<path d="M91.0146 209.722C91.0146 209.76 90.6219 211.483 89.9584 214.188C89.6446 215.468 86.9864 218.51 82.6943 223.261C79.8331 226.428 77.6744 227.76 76.0525 229.126C72.0435 232.223 70.9836 233.077 69.8765 234.097C69.6178 234.361 69.4024 234.592 69.1211 234.83" stroke="black" stroke-width="3" stroke-linecap="round" stroke-linejoin="round"/>
<path d="M89.8237 269.904C89.8685 269.482 90.5959 267.209 91.63 264.678C92.6716 262.127 94.8895 259.602 95.9066 258.401C96.9282 257.196 98.0078 256.006 98.9896 255.059C99.943 254.211 100.99 253.305 102.002 252.397C102.275 252.179 102.583 251.963 103.191 251.505" stroke="black" stroke-width="3" stroke-linecap="round" stroke-linejoin="round"/>
<path d="M108.96 252.311C108.872 252.781 108.283 254.623 107.336 256.273C105.785 258.973 104.563 260.433 99.0893 266.888C94.0489 272.103 92.282 273.586 89.9532 275.209C89.4939 275.501 89.1945 275.664 88.8267 275.89" stroke="black" stroke-width="3" stroke-linecap="round" stroke-linejoin="round"/>
<path d="M13.5303 229.058C17.5303 225.058 54.5303 203.058 44.5303 219.558C31.7303 227.958 26.5605 231.616 26.0303 232.058C25.5 232.5 53.5303 215.258 51.5303 226.058C50.0738 231.156 35.4993 242.255 33.2966 243.871C36.3899 241.771 64.5533 223.595 56 237C48 245 40.5605 250.116 40.0303 250.558C39.5 251 66.0303 236.558 58.0303 250.558C50.0303 264.558 35.3636 262.391 29.0303 259.558C21.8636 252.558 8.73026 236.658 13.5303 229.058Z" fill="white"/>
<path d="M13.5303 229.058C17.5303 225.058 54.5303 203.058 44.5303 219.558C31.7303 227.958 26.5605 231.616 26.0303 232.058C25.5 232.5 53.5303 215.258 51.5303 226.058C49.9303 231.658 32.5 244.5 33.0303 244.058C33.5605 243.616 64.9697 222.942 56 237C48 245 40.5605 250.116 40.0303 250.558C39.5 251 66.0303 236.558 58.0303 250.558C50.0303 264.558 35.3636 262.391 29.0303 259.558C21.8636 252.558 8.73026 236.658 13.5303 229.058Z" stroke="black" stroke-width="3"/>
<path d="M343.995 435.092C342.407 437.68 340.348 436.714 339.547 433.623C338.528 430.672 354.332 400.175 355.862 399.191C357.085 398.404 367.909 394.629 369 401.827C371.362 417.415 374.616 420.062 367 424.466C367.51 427.745 367.69 436.968 364.019 440.509C360.861 443.556 359.152 441.943 358.393 436.954C358.268 440.66 357.614 444.16 355.862 445.428C352.944 447.539 350.288 447.889 349.945 440.717C347.833 445.152 344.291 447.412 343.116 445.428C342.078 443.676 343.021 438.741 343.995 435.092Z" fill="white"/>
<path d="M367 424.466C367.51 427.745 367.69 436.968 364.019 440.509C359.43 444.936 357.901 439.525 357.901 428.212C358.581 432.967 359.125 443.067 355.862 445.428C351.783 448.38 348.214 447.888 350.763 428.212C354.332 439.525 345.155 448.871 343.116 445.428C341.077 441.985 346.685 426.245 345.155 432.147C343.626 438.05 340.567 437.558 339.547 433.623C338.528 430.672 354.332 400.175 355.862 399.191C357.085 398.404 367.909 394.629 369 401.827C371.5 418.327 375 420.327 365.548 425.261C356.088 430.199 358.921 412.472 361.98 404.11" stroke="black" stroke-width="3"/>
</svg>
